<svg width="315" height="144" viewBox="0 0 315 144" fill="none" xmlns="http://www.w3.org/2000/svg">
<g clip-path="url(#clip0)">
<path d="M52.9424 92.6865C52.4443 99.5713 49.8955 104.991 45.2959 108.946C40.7256 112.901 34.6904 114.879 27.1904 114.879C18.9873 114.879 12.5273 112.125 7.81055 106.617C3.12305 101.08 0.779297 93.4922 0.779297 83.8535V79.9424C0.779297 73.79 1.86328 68.3701 4.03125 63.6826C6.19922 58.9951 9.29004 55.4062 13.3037 52.916C17.3467 50.3965 22.0342 49.1367 27.3662 49.1367C34.749 49.1367 40.6963 51.1143 45.208 55.0693C49.7197 59.0244 52.3271 64.5762 53.0303 71.7246H39.8467C39.5244 67.5938 38.3672 64.6055 36.375 62.7598C34.4121 60.8848 31.4092 59.9473 27.3662 59.9473C22.9717 59.9473 19.6758 61.5293 17.4785 64.6934C15.3105 67.8281 14.1973 72.7061 14.1387 79.3271V84.1611C14.1387 91.0752 15.1787 96.1289 17.2588 99.3223C19.3682 102.516 22.6787 104.112 27.1904 104.112C31.2627 104.112 34.2949 103.189 36.2871 101.344C38.3086 99.4688 39.4658 96.583 39.7588 92.6865H52.9424ZM88.3184 114C87.7324 112.857 87.3076 111.437 87.0439 109.737C83.9678 113.165 79.9688 114.879 75.0469 114.879C70.3887 114.879 66.5215 113.531 63.4453 110.836C60.3984 108.141 58.875 104.742 58.875 100.641C58.875 95.6016 60.7354 91.7344 64.4561 89.0391C68.2061 86.3438 73.6113 84.9814 80.6719 84.9521H86.5166V82.2275C86.5166 80.0303 85.9453 78.2725 84.8027 76.9541C83.6895 75.6357 81.917 74.9766 79.4854 74.9766C77.3467 74.9766 75.6621 75.4893 74.4316 76.5146C73.2305 77.54 72.6299 78.9463 72.6299 80.7334H59.9297C59.9297 77.9795 60.7793 75.4307 62.4785 73.0869C64.1777 70.7432 66.5801 68.9121 69.6855 67.5938C72.791 66.2461 76.2773 65.5723 80.1445 65.5723C86.0039 65.5723 90.6475 67.0518 94.0752 70.0107C97.5322 72.9404 99.2607 77.0713 99.2607 82.4033V103.014C99.29 107.525 99.9199 110.938 101.15 113.253V114H88.3184ZM77.8154 105.167C79.6904 105.167 81.4189 104.757 83.001 103.937C84.583 103.087 85.7549 101.959 86.5166 100.553V92.3789H81.7705C75.4131 92.3789 72.0293 94.5762 71.6191 98.9707L71.5752 99.7178C71.5752 101.3 72.1318 102.604 73.2451 103.629C74.3584 104.654 75.8818 105.167 77.8154 105.167ZM135.735 78.3604C134.007 78.126 132.483 78.0088 131.165 78.0088C126.36 78.0088 123.211 79.6348 121.717 82.8867V114H109.017V66.4512H121.014L121.365 72.1201C123.914 67.7549 127.444 65.5723 131.956 65.5723C133.362 65.5723 134.681 65.7627 135.911 66.1436L135.735 78.3604ZM156.478 103.761H179.725V114H140.262V106.266L162.63 76.7344H140.921V66.4512H179.021V73.9658L156.478 103.761Z" fill="black"/>
<path d="M308.304 82.1894L300.381 58.4204C299.232 54.9597 297.021 51.9493 294.063 49.8169C291.105 47.6844 287.551 46.5384 283.904 46.5417H231.096C227.449 46.5384 223.895 47.6844 220.937 49.8169C217.979 51.9493 215.768 54.9597 214.618 58.4204L206.695 82.1894C204.589 83.0716 202.79 84.5565 201.525 86.4576C200.26 88.3587 199.584 90.5913 199.583 92.875V110.25C199.583 114.524 201.923 118.219 205.375 120.229V127.625C205.375 129.161 205.985 130.634 207.071 131.72C208.157 132.806 209.631 133.417 211.167 133.417H216.958C218.494 133.417 219.968 132.806 221.054 131.72C222.14 130.634 222.75 129.161 222.75 127.625V121.833H292.25V127.625C292.25 129.161 292.86 130.634 293.946 131.72C295.032 132.806 296.506 133.417 298.042 133.417H303.833C305.369 133.417 306.843 132.806 307.929 131.72C309.015 130.634 309.625 129.161 309.625 127.625V120.229C311.382 119.221 312.843 117.768 313.859 116.016C314.876 114.265 315.413 112.276 315.417 110.25V92.875C315.417 88.0621 312.48 83.9442 308.304 82.1894ZM231.096 58.125H283.898C285.114 58.1247 286.3 58.5072 287.286 59.2182C288.273 59.9293 289.01 60.9328 289.395 62.0865L295.8 81.2917H219.2L225.599 62.0865C226.393 59.7177 228.605 58.125 231.096 58.125V58.125ZM219.854 110.25C218.713 110.25 217.583 110.024 216.529 109.587C215.474 109.15 214.517 108.51 213.71 107.703C212.081 106.072 211.166 103.862 211.167 101.557C211.167 99.2519 212.084 97.0417 213.714 95.4125C215.344 93.7833 217.555 92.8684 219.86 92.8692C222.165 92.87 224.375 93.7863 226.004 95.4166C227.633 97.0469 228.548 99.2577 228.547 101.562C228.547 103.867 227.63 106.077 226 107.707C224.37 109.336 222.159 110.251 219.854 110.25V110.25ZM295.146 110.25C292.841 110.249 290.631 109.333 289.002 107.703C287.372 106.072 286.458 103.862 286.458 101.557C286.459 99.2519 287.375 97.0417 289.006 95.4125C290.636 93.7833 292.847 92.8684 295.152 92.8692C297.456 92.87 299.667 93.7863 301.296 95.4166C302.925 97.0469 303.84 99.2577 303.839 101.562C303.838 103.867 302.922 106.077 301.292 107.707C299.661 109.336 297.451 110.251 295.146 110.25V110.25ZM218.563 34.9583C220.572 38.4044 224.267 40.75 228.542 40.75C232.816 40.75 236.511 38.4044 238.521 34.9583H276.485C278.489 38.4044 282.184 40.75 286.458 40.75C290.733 40.75 294.428 38.4044 296.437 34.9583H286.458V23.375H296.437C294.428 19.929 290.733 17.5833 286.458 17.5833C282.184 17.5833 278.489 19.929 276.479 23.375H238.521C236.511 19.929 232.816 17.5833 228.542 17.5833C224.267 17.5833 220.572 19.929 218.563 23.375H228.542V34.9583H218.563Z" fill="black"/>
</g>
<defs>
<clipPath id="clip0">
<rect width="315" height="144" fill="white"/>
</clipPath>
</defs>
</svg>
